<?xml version="1.0" encoding="utf-8"?>
<!-- Generator: Adobe Illustrator 16.0.0, SVG Export Plug-In . SVG Version: 6.00 Build 0)  -->
<!DOCTYPE svg PUBLIC "-//W3C//DTD SVG 1.1//EN" "http://www.w3.org/Graphics/SVG/1.1/DTD/svg11.dtd">
<svg version="1.1" xmlns="http://www.w3.org/2000/svg" xmlns:xlink="http://www.w3.org/1999/xlink" x="0px" y="0px" width="150px"
	 height="150px" viewBox="0 0 150 150" enable-background="new 0 0 150 150" xml:space="preserve">
<g id="Logo">
</g>
<g id="Icon">
	<rect x="1.221" y="0.146" display="none" fill="#333333" width="149.999" height="150"/>
	<g id="Icon_2_">
		<polygon fill="#666666" points="150,55.521 150,120.562 76.226,146.756 76.22,77.478 		"/>
		<polygon fill="#666666" points="73.779,146.756 0,120.565 0,55.521 23.071,62.39 23.071,74.103 34.772,77.856 41.753,75.099 
			41.753,67.947 73.767,77.478 		"/>
		<polygon fill="#666666" points="150,27.652 150,49.646 76.22,71.589 76.22,49.608 		"/>
		<polygon fill="#666666" points="73.767,49.608 73.767,71.603 41.753,62.071 41.753,49.964 29.203,46.101 23.071,48.701 
			23.071,56.515 0,49.646 0,27.652 		"/>
		<polygon fill="#666666" points="148.771,25.201 74.992,47.156 1.228,25.201 74.992,3.244 		"/>
		<polygon fill="#666666" points="40.707,74.487 35.188,76.695 35.188,53.242 40.707,51.034 		"/>
		<polygon fill="#666666" points="23.996,73.424 34.421,76.61 34.421,53.156 23.996,49.97 		"/>
		<polygon fill="#666666" points="23.996,49.302 34.915,52.784 40.367,50.637 29.447,47.156 		"/>
		<line fill="#666666" x1="41.753" y1="75.146" x2="41.753" y2="75.099"/>
	</g>
</g>
</svg>
